<svg xmlns="http://www.w3.org/2000/svg" xmlns:xlink="http://www.w3.org/1999/xlink" width="253.803" height="253.803" viewBox="0 0 67.152 67.152"><polygon points="62.151 62.151 5.001 62.151 5.001 5.001 62.151 5.001" style="fill:none;stroke-width:.05mm;stroke:#000"/><polygon points="7.526 45.626 7.526 59.626 21.526 59.626 21.526 45.626" style="fill:none;stroke-width:.05mm;stroke:#000"/><polygon points="26.576 45.626 26.576 59.626 40.576 59.626 40.576 45.626" style="fill:none;stroke-width:.05mm;stroke:#000"/><polygon points="45.626 45.626 45.626 59.626 59.626 59.626 59.626 45.626" style="fill:none;stroke-width:.05mm;stroke:#000"/><polygon points="7.526 26.576 7.526 40.576 21.526 40.576 21.526 26.576" style="fill:none;stroke-width:.05mm;stroke:#000"/><polygon points="26.576 26.576 26.576 40.576 40.576 40.576 40.576 26.576" style="fill:none;stroke-width:.05mm;stroke:#000"/><polygon points="45.626 26.576 45.626 40.576 59.626 40.576 59.626 26.576" style="fill:none;stroke-width:.05mm;stroke:#000"/><polygon points="7.526 7.526 7.526 21.526 21.526 21.526 21.526 7.526" style="fill:none;stroke-width:.05mm;stroke:#000"/><polygon points="45.626 7.526 45.626 21.526 59.626 21.526 59.626 7.526" style="fill:none;stroke-width:.05mm;stroke:#000"/></svg>